<svg width="99" height="67" viewBox="0 0 99 67" fill="none" xmlns="http://www.w3.org/2000/svg">
<path d="M20.1965 65.3677C14.2487 65.3677 8.12654 64.2061 1.88302 61.889C1.63402 61.7973 1.39437 61.6903 1.17338 61.5681L0 60.9322L29.6956 0H67.0479L67.4587 0.693905C67.5458 0.843691 67.6299 0.996534 67.7108 1.15855L68.5231 2.77256C69.488 4.68921 70.4591 6.60586 71.4301 8.52556C71.7476 9.16444 72.0682 9.79415 72.3888 10.4208C73.3536 12.3405 74.3216 14.251 75.2864 16.1616L78.9093 23.3268C79.261 24.0269 79.6127 24.7269 79.9706 25.4269C80.8172 27.1082 81.6638 28.7803 82.5073 30.4524L82.8621 31.1554C83.1982 31.8188 83.5344 32.4821 83.8674 33.1454C84.7295 34.8451 85.5917 36.5477 86.4507 38.2534C86.7931 38.926 87.123 39.574 87.4467 40.2251C88.3213 41.9461 89.199 43.6794 90.0736 45.4126L90.1296 45.5257C90.5373 46.3296 90.9451 47.1336 91.3528 47.9437C92.1807 49.573 93.0055 51.2084 93.8303 52.8438C94.1975 53.5652 94.5648 54.2927 94.9352 55.0203L97.8391 60.761C98.0601 61.2043 98.2032 61.5283 98.309 61.8126L99 63.6865H72.7187L72.2923 63.127C72.23 63.0445 72.174 62.965 72.118 62.8764C71.8939 62.5279 71.676 62.2161 71.4675 61.9318C69.9051 59.7859 67.966 58.0466 65.7064 56.7596C64.6544 56.1544 63.537 55.6622 62.3917 55.2893C58.5447 54.0299 54.4519 54.0971 50.5427 55.488C50.191 55.6103 49.833 55.7509 49.4378 55.919C49.0145 56.0993 48.5912 56.2889 48.1741 56.4876C46.6739 57.1906 45.1768 58.0038 43.7327 58.7894C43.0417 59.1654 42.3476 59.5414 41.6536 59.9082C39.2352 61.189 36.7484 62.2589 34.2585 63.0873C33.4274 63.3655 32.5528 63.6284 31.6596 63.8699C27.9309 64.8664 24.1026 65.3677 20.1965 65.3677ZM3.80027 59.6056C13.2465 62.9406 22.3628 63.4664 30.9126 61.1707C31.7498 60.9445 32.5715 60.6969 33.3496 60.437C35.6871 59.6575 38.0307 58.6488 40.3121 57.4413C41 57.0775 41.6816 56.7077 42.3632 56.3378C43.8447 55.5338 45.3792 54.7024 46.9478 53.9657C47.396 53.7517 47.8598 53.5438 48.3173 53.3482C48.7686 53.1556 49.1856 52.9936 49.5872 52.853C54.0971 51.2481 58.8404 51.1717 63.2943 52.6329C64.6264 53.0639 65.9212 53.6386 67.1443 54.3386C69.7557 55.8273 71.9904 57.8326 73.7831 60.2964C73.9201 60.4798 74.057 60.6785 74.2033 60.8894H94.736L92.3954 56.2614C92.0282 55.5338 91.6578 54.8063 91.2905 54.0818C90.4626 52.4403 89.6409 50.811 88.8099 49.1786C88.4022 48.3686 87.9945 47.5646 87.5867 46.7637L87.5276 46.6476C86.653 44.9143 85.7753 43.1841 84.9007 41.457C84.5739 40.8029 84.2471 40.164 83.9203 39.522L83.9016 39.4854C83.0457 37.7827 82.1836 36.0831 81.3183 34.3835C80.9822 33.7171 80.6491 33.0568 80.313 32.3965L79.9551 31.6934C79.1085 30.0213 78.265 28.3462 77.4184 26.671C77.0636 25.9741 76.7088 25.2679 76.354 24.5649L72.7343 17.4057C71.7663 15.4952 70.7983 13.5816 69.8366 11.6649C69.516 11.0383 69.1954 10.3994 68.8748 9.76359C67.9069 7.85 66.9358 5.93029 65.9678 4.01059L65.3578 2.79702H31.4884L3.80027 59.6056Z" fill="#D81E41"/>
<path d="M49.4221 31.2536C53.7048 31.2536 57.2405 28.0959 57.7354 24.0272C57.779 23.7002 57.8008 23.37 57.8008 23.0307H58.8154C58.8154 22.6914 58.7936 22.3613 58.7594 22.0342H67.4213V23.0307C67.4213 32.7912 59.3601 40.7085 49.4221 40.7085C39.4842 40.7085 31.423 32.7912 31.423 23.0307V22.0342H40.0911C40.0537 22.3613 40.0351 22.6914 40.0351 23.0307H41.0497C41.0497 23.37 41.0715 23.7002 41.1151 24.0272C41.6068 28.099 45.1425 31.2536 49.4221 31.2536Z" fill="#D81E41"/>
<path d="M49.4222 13.8018C54.262 13.8018 58.2552 17.4088 58.7594 22.0308H56.7115C56.2166 18.5124 53.1353 15.7979 49.4222 15.7979C45.709 15.7979 42.6277 18.5124 42.1329 22.0308H40.088C40.5922 17.4119 44.5855 13.8018 49.4222 13.8018Z" fill="#D81E41"/>
<path d="M57.0197 65.5633C57.0975 65.5633 57.1379 65.5969 57.1379 65.6672V66.7524C57.1379 66.8288 57.0975 66.8686 57.0197 66.8686H56.7956C56.1731 66.8686 55.6906 66.728 55.3483 66.4437C53.901 66.8136 52.5907 67 51.4173 67C50.303 66.9572 49.4938 66.7585 48.9834 66.407C48.476 66.0555 48.2208 65.5113 48.2208 64.7808C48.2208 64.2978 48.2955 63.7384 48.4449 63.1025H49.5623C49.4565 63.5947 49.4035 64.0104 49.4035 64.3559C49.4035 64.8297 49.5685 65.1598 49.8953 65.3493C50.2252 65.5389 50.8353 65.655 51.7285 65.6978C52.8334 65.6978 53.845 65.5786 54.7663 65.3371C54.7227 65.0956 54.7009 64.8511 54.7009 64.6004V59.202L55.9116 58.9941V64.5974C55.9116 64.9581 55.9832 65.2118 56.1295 65.3524C56.2727 65.4961 56.5248 65.5664 56.8858 65.5664H57.0197V65.5633ZM53.4559 62.9436C53.4559 63.2798 53.3252 63.5397 53.0606 63.7261C52.7992 63.9126 52.4164 64.0043 51.9184 64.0043H50.9971L51.1558 63.0475H51.9184C52.3199 63.0475 52.5284 62.965 52.5378 62.803C52.5378 62.5615 52.1705 62.427 51.4329 62.4025L51.2897 61.3449L53.3003 60.1955V61.3204L51.9713 61.785C52.4351 61.8278 52.7992 61.9501 53.0638 62.1519C53.3252 62.3506 53.4559 62.6165 53.4559 62.9436Z" fill="#D81E41"/>
<path d="M59.7027 57.6611C59.8179 57.9546 59.8739 58.2603 59.8739 58.5782C59.8739 59.1651 59.6373 59.4555 59.1642 59.4555C58.9028 59.4555 58.7005 59.3363 58.5604 59.0948C58.4639 59.5075 58.2243 59.7153 57.8384 59.7153C57.6205 59.7153 57.44 59.6389 57.2999 59.4891C57.1598 59.3393 57.0883 59.1376 57.0883 58.89C57.0883 58.676 57.1194 58.4773 57.1816 58.297L57.6143 58.3887C57.5894 58.5079 57.5738 58.6179 57.5738 58.7127C57.5738 59.0153 57.6796 59.1651 57.8882 59.1651C58.0375 59.1651 58.1309 59.0979 58.1714 58.9634C58.2118 58.8288 58.2274 58.5384 58.2181 58.0921L58.6009 57.9882C58.6258 58.3336 58.6849 58.5751 58.7783 58.7127C58.8717 58.8502 58.9962 58.9053 59.1518 58.8808C59.4132 58.8288 59.435 58.5079 59.2172 57.9118L59.7027 57.6611Z" fill="#D81E41"/>
<path d="M60.5056 65.5633C60.5834 65.5633 60.6238 65.5969 60.6238 65.6673V66.7524C60.6238 66.8289 60.5834 66.8686 60.5056 66.8686C59.7243 66.8686 59.1828 66.6454 58.8746 66.1961C58.4794 66.6424 57.9409 66.8686 57.2562 66.8686H57.0196C56.9418 66.8686 56.9014 66.8289 56.9014 66.7524V65.6673C56.9014 65.5969 56.9418 65.5633 57.0196 65.5633H57.2033C57.5612 65.5633 57.8133 65.493 57.9596 65.3493C58.1028 65.2087 58.1775 64.955 58.1775 64.5943V62.9558L59.3882 62.748V64.5943C59.3882 64.9733 59.466 65.2301 59.6247 65.3616C59.7804 65.4991 60.076 65.5633 60.5056 65.5633ZM59.2761 61.6719C59.1392 61.7973 58.9711 61.8584 58.7688 61.8584C58.5665 61.8584 58.4016 61.7973 58.2677 61.6781C58.137 61.5588 58.0654 61.3968 58.0561 61.2012C58.0561 61.0117 58.1245 60.8527 58.2584 60.7243C58.3953 60.5959 58.5634 60.5317 58.7657 60.5317C58.968 60.5317 59.1361 60.5929 59.273 60.7182C59.41 60.8435 59.4753 61.0056 59.4753 61.2012C59.4785 61.3907 59.41 61.5466 59.2761 61.6719Z" fill="#D81E41"/>
<path d="M63.923 65.5628H65.3952L65.1836 66.8681H60.5056C60.4278 66.8681 60.3873 66.8283 60.3873 66.7519V65.6667C60.3873 65.5964 60.4278 65.5628 60.5056 65.5628H61.7412C61.3366 65.2113 61.1374 64.7527 61.1374 64.1933C61.1374 63.582 61.3553 63.0898 61.7879 62.7138C62.2205 62.3409 62.7746 62.1514 63.45 62.1514C63.7923 62.1514 64.2561 62.237 64.8443 62.4081V63.5453C64.2996 63.4261 63.8857 63.3649 63.5962 63.3649C63.2103 63.3649 62.8991 63.4566 62.6625 63.6431C62.426 63.8296 62.3077 64.0772 62.3077 64.3859C62.3077 64.6947 62.4509 64.9698 62.7341 65.2052C63.0173 65.4467 63.4157 65.5628 63.923 65.5628Z" fill="#D81E41"/>
</svg>
